<?xml version="1.0" standalone="no"?>
<!DOCTYPE svg PUBLIC "-//W3C//DTD SVG 20010904//EN"
 "http://www.w3.org/TR/2001/REC-SVG-20010904/DTD/svg10.dtd">
<svg version="1.0" xmlns="http://www.w3.org/2000/svg"
 width="1280.000000pt" height="1280.000000pt" viewBox="0 0 1280.000000 1280.000000"
 preserveAspectRatio="xMidYMid meet">
<metadata>
Created by potrace 1.15, written by Peter Selinger 2001-2017
</metadata>
<g transform="translate(0.000000,1280.000000) scale(0.100000,-0.100000)"
fill="#ffffff" stroke="none">
<path d="M5750 12781 c-30 -10 -81 -34 -113 -54 -133 -85 -5178 -3535 -5234
-3579 -116 -92 -248 -279 -319 -451 -142 -350 -94 -674 106 -713 19 -4 59 -24
89 -45 29 -21 79 -49 110 -61 l56 -23 5750 -3 c4340 -2 5763 0 5805 9 216 45
372 238 371 459 -1 174 -2 178 -65 268 -63 90 -117 142 -186 177 -25 13 -119
80 -209 150 -619 477 -1968 1380 -3936 2635 -368 235 -915 595 -1215 801 -300
205 -576 389 -613 408 -68 35 -70 36 -205 37 -105 1 -150 -2 -192 -15z"/>
<path d="M1871 7514 c-189 -51 -355 -228 -396 -421 -22 -102 -22 -5304 0
-5406 22 -107 70 -192 155 -278 136 -138 297 -187 465 -144 82 22 149 60 221
128 73 68 117 132 153 225 l26 67 3 2673 c2 2948 7 2730 -60 2869 -44 91 -158
206 -248 249 -111 54 -214 66 -319 38z"/>
<path d="M3575 7516 c-164 -40 -312 -176 -383 -353 l-27 -68 0 -2700 0 -2700
23 -67 c60 -173 212 -320 377 -363 165 -43 325 5 461 139 86 85 145 195 163
304 8 48 11 801 9 2722 l-3 2655 -26 66 c-38 99 -76 157 -143 224 -129 127
-296 179 -451 141z"/>
<path d="M5273 7516 c-92 -23 -164 -65 -244 -145 -83 -83 -137 -179 -158 -279
-8 -38 -11 -819 -11 -2705 0 -2893 -3 -2712 56 -2830 53 -104 149 -204 244
-252 196 -99 402 -63 565 100 75 75 122 152 152 250 17 58 18 167 18 2735 l0
2675 -23 72 c-84 267 -354 438 -599 379z"/>
<path d="M6973 7516 c-190 -46 -363 -226 -403 -420 -7 -35 -9 -896 -8 -2736
l3 -2685 24 -60 c105 -263 361 -414 597 -351 67 18 157 66 215 116 59 50 132
157 161 235 l23 60 3 2685 c2 2019 0 2699 -9 2740 -6 30 -25 82 -41 115 -114
230 -345 354 -565 301z"/>
<path d="M8663 7515 c-114 -31 -217 -103 -293 -204 -65 -87 -97 -169 -110
-283 -8 -64 -10 -910 -8 -2703 3 -2478 4 -2613 21 -2670 23 -76 73 -167 127
-227 49 -57 157 -129 225 -153 68 -24 181 -30 246 -15 139 32 283 146 352 277
73 139 67 -105 67 2853 0 2941 5 2715 -62 2844 -46 87 -166 205 -248 243 -112
53 -215 65 -317 38z"/>
<path d="M10361 7514 c-176 -47 -331 -202 -388 -389 -17 -57 -18 -172 -18
-2735 l0 -2675 22 -70 c74 -233 278 -394 499 -395 128 0 250 57 353 166 76 79
131 179 150 272 16 75 16 5329 0 5404 -42 201 -223 386 -417 427 -70 15 -135
13 -201 -5z"/>
<path d="M150 320 l0 -320 6325 0 6325 0 0 320 0 320 -6325 0 -6325 0 0 -320z"/>
</g>
</svg>
