<?xml version="1.0" standalone="no"?>
<!DOCTYPE svg PUBLIC "-//W3C//DTD SVG 20010904//EN"
 "http://www.w3.org/TR/2001/REC-SVG-20010904/DTD/svg10.dtd">
<svg version="1.0" xmlns="http://www.w3.org/2000/svg"
 width="1095.000000pt" height="1280.000000pt" viewBox="0 0 1095.000000 1280.000000"
 preserveAspectRatio="xMidYMid meet">
<metadata>
Created by potrace 1.15, written by Peter Selinger 2001-2017
</metadata>
<g transform="translate(0.000000,1280.000000) scale(0.100000,-0.100000)"
fill="#000000" stroke="none">
<path d="M4835 12769 c-15 -19 -46 -72 -67 -119 -81 -174 -100 -210 -112 -210
-17 0 -82 47 -178 131 -44 38 -105 81 -136 96 -51 24 -68 27 -162 27 -137 0
-201 -23 -281 -103 -68 -68 -89 -123 -89 -230 0 -93 18 -133 103 -227 119
-132 130 -165 92 -261 -28 -70 -36 -148 -23 -213 8 -34 7 -36 -43 -63 -120
-68 -290 -217 -378 -331 -98 -127 -175 -291 -207 -441 -23 -108 -23 -333 -1
-434 34 -154 98 -255 291 -461 123 -132 195 -220 179 -220 -4 0 -49 -7 -98
-15 -233 -37 -449 -129 -641 -271 -173 -127 -307 -266 -554 -574 -357 -444
-575 -659 -1146 -1127 -333 -273 -531 -467 -676 -659 -123 -164 -175 -271
-304 -619 -78 -212 -88 -230 -214 -400 -116 -155 -154 -220 -175 -300 -21 -81
-20 -85 16 -85 48 0 95 28 147 85 64 72 92 93 142 104 l43 9 -6 -72 c-4 -51
-22 -122 -61 -238 -32 -94 -56 -183 -56 -206 0 -55 18 -92 44 -92 30 0 41 10
65 58 24 47 41 54 41 17 0 -33 42 -75 74 -75 35 0 67 43 117 161 l44 104 6
-65 c8 -82 24 -116 61 -129 57 -20 88 18 108 129 10 53 34 120 43 120 1 0 2
-24 2 -53 1 -57 21 -101 61 -130 23 -17 25 -17 63 2 62 32 98 83 111 160 11
69 11 77 -25 346 -28 213 4 311 114 351 314 115 522 223 729 379 222 166 476
438 621 664 30 46 43 55 154 110 67 33 194 107 282 164 153 100 275 170 283
162 8 -8 -94 -219 -219 -453 -298 -555 -389 -750 -468 -997 -137 -429 -146
-891 -26 -1398 116 -495 379 -978 733 -1348 l90 -94 -9 -55 c-14 -87 -11 -389
7 -580 8 -96 19 -332 24 -525 10 -423 9 -420 154 -890 53 -171 67 -246 69
-364 l1 -104 -44 -39 c-62 -55 -136 -97 -351 -197 -274 -129 -381 -207 -432
-319 -28 -61 -30 -184 -4 -259 21 -60 11 -56 187 -74 112 -12 1603 -25 1646
-15 41 11 93 64 100 104 4 20 7 102 8 182 l1 145 44 94 c82 178 80 313 -9 531
-68 167 -82 226 -82 345 -1 154 31 282 122 485 26 58 69 152 95 210 63 140
101 257 116 358 8 55 16 81 24 78 45 -17 228 -28 393 -23 196 5 351 28 547 81
50 13 91 24 91 23 1 -1 -5 -38 -14 -82 -11 -56 -16 -145 -16 -300 -1 -304 21
-406 125 -567 28 -45 58 -102 66 -126 19 -64 16 -173 -8 -277 -32 -137 -35
-305 -10 -518 29 -245 28 -302 -9 -417 -35 -112 -39 -189 -11 -240 25 -47 48
-56 176 -69 301 -30 715 -37 1504 -24 l423 6 -4 96 c-5 119 -33 188 -108 261
-64 62 -138 103 -341 191 -89 38 -187 84 -218 103 -82 50 -149 121 -185 196
-26 57 -31 78 -34 167 -5 124 10 201 80 398 86 245 82 220 83 600 1 292 4 359
23 475 86 552 103 737 84 910 l-9 85 86 90 c400 417 661 1012 743 1695 17 139
16 538 -1 660 -49 357 -163 676 -372 1040 -39 69 -142 235 -228 370 -203 316
-341 549 -341 575 0 3 37 -25 83 -63 114 -95 311 -244 442 -334 172 -118 304
-194 513 -296 l194 -94 45 -70 c48 -75 129 -238 248 -503 161 -358 264 -488
532 -668 143 -96 217 -167 256 -243 32 -63 40 -93 82 -297 20 -92 46 -191 59
-221 40 -90 146 -189 166 -155 17 26 20 100 10 210 -7 71 -7 125 -2 140 8 21
14 10 42 -81 40 -133 68 -182 117 -205 33 -16 40 -16 62 -4 46 26 56 75 42
209 -13 117 -9 178 10 149 5 -8 20 -49 34 -91 29 -86 61 -125 112 -134 28 -5
39 -2 56 15 19 18 23 36 27 129 5 93 7 104 17 80 16 -35 52 -58 94 -60 78 -3
95 20 93 122 -1 66 -21 113 -97 234 -31 49 -56 91 -54 92 2 2 21 -3 42 -11 56
-20 145 -19 174 1 20 15 23 22 17 60 -8 60 -37 113 -85 157 -49 45 -99 70
-263 135 -282 112 -325 176 -368 547 -21 184 -39 249 -95 350 -90 161 -149
217 -355 340 -154 93 -190 128 -250 244 -82 160 -148 227 -475 489 -297 238
-395 343 -704 752 -220 292 -303 390 -435 517 -229 221 -462 344 -736 389
l-98 17 80 90 c196 222 322 478 359 727 7 50 10 137 7 219 -4 112 -10 149 -31
209 -66 190 -192 327 -512 557 -66 48 -121 88 -123 90 -2 2 10 22 27 46 37 50
40 98 11 139 -48 67 -53 101 -54 360 -1 271 -7 308 -58 349 -112 91 -350 107
-507 36 -31 -15 -67 -37 -81 -50 l-26 -25 -27 59 c-18 39 -46 76 -82 109 -103
95 -224 108 -322 36 -17 -13 -36 -24 -41 -24 -6 0 -27 21 -49 46 -35 42 -44
47 -91 52 -50 4 -52 3 -88 -37 -21 -22 -44 -41 -51 -41 -8 0 -29 11 -47 25
-65 50 -155 48 -240 -4 l-36 -22 -59 36 c-45 28 -74 38 -118 42 -58 5 -60 5
-88 -28z"/>
</g>
</svg>
