<?xml version="1.0" standalone="no"?>
<!DOCTYPE svg PUBLIC "-//W3C//DTD SVG 20010904//EN"
 "http://www.w3.org/TR/2001/REC-SVG-20010904/DTD/svg10.dtd">
<svg version="1.0" xmlns="http://www.w3.org/2000/svg"
 width="1280.000000pt" height="1023.000000pt" viewBox="0 0 1280.000000 1023.000000"
 preserveAspectRatio="xMidYMid meet">
<metadata>
Created by potrace 1.15, written by Peter Selinger 2001-2017
</metadata>
<g transform="translate(0.000000,1023.000000) scale(0.100000,-0.100000)"
fill="#00bcd4" stroke="none">
<path d="M6160 8039 c-1040 -85 -1969 -728 -2414 -1670 -187 -397 -277 -805
-277 -1254 0 -598 162 -1135 492 -1631 203 -305 509 -612 804 -809 365 -242
761 -396 1206 -467 126 -20 180 -23 429 -23 249 0 303 3 429 23 523 84 999
290 1401 608 115 91 359 337 456 459 459 580 682 1272 644 1995 -15 277 -57
501 -145 765 -423 1285 -1676 2114 -3025 2004z"/>
</g>
</svg>
