<?xml version="1.0" standalone="no"?>
<!DOCTYPE svg PUBLIC "-//W3C//DTD SVG 20010904//EN"
 "http://www.w3.org/TR/2001/REC-SVG-20010904/DTD/svg10.dtd">
<svg version="1.0" xmlns="http://www.w3.org/2000/svg"
 width="1280.000000pt" height="1273.000000pt" viewBox="0 0 1280.000000 1273.000000"
 preserveAspectRatio="xMidYMid meet">
<metadata>
Created by potrace 1.15, written by Peter Selinger 2001-2017
</metadata>
<g transform="translate(0.000000,1273.000000) scale(0.100000,-0.100000)"
fill="rgb(49,163,214)" stroke="none">
<path d="M5720 12724 c-314 -7 -1122 -35 -1425 -49 -2207 -103 -3739 -281
-4161 -485 -125 -60 -159 -115 -112 -176 13 -16 293 -310 623 -654 330 -344
1464 -1525 2520 -2625 1056 -1100 2106 -2193 2333 -2430 l412 -429 -2 -2011
-3 -2011 -37 -75 c-72 -145 -203 -245 -448 -344 -150 -61 -343 -116 -765 -219
-190 -47 -418 -106 -508 -132 -448 -128 -741 -277 -928 -471 -153 -158 -223
-313 -244 -541 l-7 -72 3432 0 3432 0 -7 72 c-9 99 -38 221 -70 293 -91 204
-286 384 -565 521 -224 111 -472 189 -1045 330 -422 103 -615 158 -765 219
-245 99 -376 199 -448 344 l-37 75 -3 2011 -2 2011 412 430 c227 236 1277
1329 2333 2429 1056 1100 2190 2281 2520 2625 330 344 610 638 623 654 47 61
13 116 -112 176 -475 229 -2350 425 -4941 515 -410 15 -1677 26 -2005 19z
m2105 -998 c1090 -42 2145 -111 2990 -196 110 -11 209 -20 220 -20 14 0 -97
-117 -350 -370 l-370 -370 -3915 0 -3915 0 -370 370 c-225 225 -363 370 -352
370 10 0 131 11 270 25 1058 104 2233 173 3577 209 311 8 1850 -4 2215 -18z"/>
</g>
</svg>
