<?xml version="1.0" standalone="no"?>
<!DOCTYPE svg PUBLIC "-//W3C//DTD SVG 20010904//EN"
 "http://www.w3.org/TR/2001/REC-SVG-20010904/DTD/svg10.dtd">
<svg version="1.0" xmlns="http://www.w3.org/2000/svg"
 width="1109.000000pt" height="1280.000000pt" viewBox="0 0 1109.000000 1280.000000"
 preserveAspectRatio="xMidYMid meet">
<metadata>
Created by potrace 1.15, written by Peter Selinger 2001-2017
</metadata>
<g transform="translate(0.000000,1280.000000) scale(0.100000,-0.100000)"
fill="rgb(49,163,214)" stroke="none">
<path d="M2774 11201 l-2769 -1598 0 -3203 0 -3203 990 -571 c545 -314 1788
-1032 2764 -1595 976 -564 1780 -1024 1786 -1024 6 0 810 460 1786 1024 976
563 2220 1281 2764 1595 l990 571 0 3203 0 3203 -2735 1579 c-1504 868 -2751
1588 -2771 1598 l-36 19 -2769 -1598z m4912 -201 c1165 -673 2298 -1326 2517
-1452 l397 -230 0 -2918 0 -2917 -442 -256 c-244 -140 -1068 -616 -1833 -1057
-764 -442 -1702 -982 -2083 -1202 -381 -220 -699 -398 -706 -395 -13 5 -440
252 -3724 2146 l-1322 764 0 2917 0 2918 443 256 c243 140 1378 795 2522 1456
1144 660 2087 1199 2096 1197 9 -3 969 -555 2135 -1227z"/>
<path d="M5345 9039 c-671 -92 -1199 -580 -1348 -1247 -18 -84 -21 -129 -22
-337 0 -198 3 -255 19 -325 28 -127 62 -223 122 -345 63 -128 140 -238 296
-424 163 -193 194 -240 213 -322 37 -164 75 -497 116 -1009 12 -151 23 -276
25 -278 1 -2 32 6 69 17 65 20 88 21 710 21 622 0 645 -1 710 -21 37 -11 68
-19 69 -17 2 2 15 153 30 337 34 425 70 744 101 895 28 140 37 156 213 365
259 308 359 488 424 761 25 108 36 433 19 566 -47 353 -196 650 -455 910 -233
232 -480 366 -801 434 -116 24 -395 35 -510 19z"/>
<path d="M4893 4651 c-87 -22 -168 -101 -193 -191 -5 -19 -10 -134 -10 -256 0
-266 8 -303 79 -374 83 -83 56 -80 776 -80 720 0 693 -3 776 80 71 71 79 108
79 374 0 122 -5 238 -10 258 -18 63 -70 129 -130 162 l-55 31 -640 2 c-352 1
-654 -2 -672 -6z"/>
</g>
</svg>
