<?xml version="1.0" encoding="UTF-8"?>
<svg width="752pt" height="752pt" fill="rgb(49,163,214)" version="1.1" viewBox="0 0 752 752" xmlns="http://www.w3.org/2000/svg">
 <path d="m564.92 349.62c-17.922-31.039-53.691-92.996-71.609-124.04-9.4258-16.324-26.848-26.383-45.695-26.383h-143.23c-18.848 0-36.273 10.059-45.695 26.383-17.922 31.039-53.691 92.996-71.609 124.04-9.4297 16.324-9.4297 36.441 0 52.766 17.922 31.039 53.691 92.996 71.609 124.04 9.4258 16.324 26.848 26.383 45.695 26.383h143.23c18.848 0 36.273-10.059 45.695-26.383 17.922-31.039 53.691-92.996 71.609-124.04 9.4258-16.324 9.4258-36.441 0-52.766zm-26.879 15.52c3.8828 6.7266 3.8828 15.004 0 21.727-17.922 31.039-53.691 92.996-71.609 124.04-3.8828 6.7188-11.055 10.863-18.816 10.863h-143.23c-7.7617 0-14.934-4.1445-18.816-10.863-17.922-31.039-53.691-92.996-71.609-124.04-3.8828-6.7266-3.8828-15.004 0-21.727 17.922-31.039 53.691-92.996 71.609-124.04 3.8828-6.7188 11.055-10.863 18.816-10.863h143.23c7.7617 0 14.934 4.1445 18.816 10.863 17.922 31.039 53.691 92.996 71.609 124.04z" fill-rule="evenodd"/>
</svg>
