<?xml version="1.0" standalone="no"?>
<!DOCTYPE svg PUBLIC "-//W3C//DTD SVG 20010904//EN"
 "http://www.w3.org/TR/2001/REC-SVG-20010904/DTD/svg10.dtd">
<svg version="1.0" xmlns="http://www.w3.org/2000/svg"
 width="1280.000000pt" height="1280.000000pt" viewBox="0 0 1280.000000 1280.000000"
 preserveAspectRatio="xMidYMid meet">
<metadata>
Created by potrace 1.15, written by Peter Selinger 2001-2017
</metadata>
<g transform="translate(0.000000,1280.000000) scale(0.100000,-0.100000)"
fill="#00bcd4" stroke="none">
<path d="M2315 11555 c-449 -54 -814 -250 -1058 -570 -105 -138 -206 -381
-243 -585 -23 -122 -26 -478 -5 -590 76 -422 247 -706 563 -933 78 -55 321
-180 453 -232 103 -41 324 -92 449 -104 76 -8 1293 -11 3965 -11 3178 1 3875
3 3966 14 117 15 285 52 375 84 79 29 273 116 360 164 386 209 620 546 702
1008 17 100 17 470 0 570 -33 182 -87 342 -166 484 -217 395 -650 653 -1180
705 -174 17 -8036 13 -8181 -4z"/>
<path d="M2285 7869 c-38 -4 -117 -19 -175 -33 -626 -148 -1004 -542 -1111
-1156 -18 -101 -18 -452 -1 -550 84 -469 316 -803 703 -1009 127 -68 232 -108
369 -143 242 -61 -22 -57 4328 -58 2745 0 4013 3 4080 11 53 5 147 22 207 35
769 176 1191 765 1134 1583 -26 370 -165 681 -410 917 -196 188 -410 297 -749
380 l-115 29 -4095 1 c-2252 1 -4126 -2 -4165 -7z"/>
<path d="M2395 4105 c-183 -20 -374 -70 -523 -137 -94 -41 -321 -172 -394
-225 -221 -162 -370 -361 -463 -617 -107 -297 -119 -708 -31 -1021 118 -421
410 -732 842 -899 111 -43 324 -92 462 -106 144 -14 7951 -14 8094 0 207 22
415 80 595 167 410 198 660 539 745 1013 8 48 13 155 13 295 0 193 -3 234 -24
335 -71 345 -244 625 -506 822 -74 56 -302 189 -398 232 -158 72 -342 120
-542 142 -184 19 -7683 18 -7870 -1z"/>
</g>
</svg>
