<?xml version="1.0" standalone="no"?>
<!DOCTYPE svg PUBLIC "-//W3C//DTD SVG 20010904//EN"
 "http://www.w3.org/TR/2001/REC-SVG-20010904/DTD/svg10.dtd">
<svg version="1.0" xmlns="http://www.w3.org/2000/svg"
 width="985.000000pt" height="1280.000000pt" viewBox="0 0 985.000000 1280.000000"
 preserveAspectRatio="xMidYMid meet">
<metadata>
Created by potrace 1.15, written by Peter Selinger 2001-2017
</metadata>
<g transform="translate(0.000000,1280.000000) scale(0.100000,-0.100000)"
fill="#ffffff" stroke="none">
<path d="M4690 12640 c-302 -10 -491 -46 -665 -129 -122 -58 -698 -422 -814
-515 -136 -109 -184 -180 -196 -291 -14 -127 -87 -359 -171 -542 -18 -40 -29
-75 -25 -78 9 -5 16 8 77 154 72 171 121 338 139 476 17 130 84 204 335 372
156 104 201 124 77 34 -83 -61 -224 -181 -284 -243 -69 -72 -103 -125 -103
-162 0 -103 -124 -467 -228 -671 -14 -27 -31 -70 -38 -95 -17 -61 -17 -28 0
38 16 65 3 69 -18 5 -65 -205 -126 -504 -126 -621 0 -31 9 -118 20 -192 11
-74 22 -161 26 -192 3 -34 14 -70 28 -90 12 -18 28 -49 36 -68 7 -19 53 -114
101 -210 102 -204 149 -332 149 -400 0 -26 -9 -92 -20 -145 -31 -153 -28 -189
26 -292 70 -133 106 -178 170 -209 46 -23 64 -26 112 -21 78 7 211 67 356 160
66 42 124 77 129 77 6 0 7 -21 3 -52 -3 -29 -6 -100 -7 -158 l-1 -105 -14 129
c-8 71 -17 132 -19 134 -14 15 -14 -20 0 -154 33 -316 28 -681 -10 -740 -21
-33 -364 -307 -554 -442 -97 -69 -278 -195 -404 -278 -222 -150 -240 -160
-850 -462 -342 -170 -657 -323 -699 -340 -43 -17 -121 -53 -175 -79 -86 -42
-113 -62 -213 -159 -113 -110 -180 -187 -336 -389 -119 -153 -131 -176 -170
-331 -150 -595 -170 -851 -109 -1379 44 -384 44 -386 2 -496 -62 -163 -95
-286 -127 -469 -11 -62 -19 -90 -19 -67 -1 36 -2 37 -41 37 l-40 0 2 -337 3
-338 948 -3 c895 -2 948 -1 955 15 4 10 7 56 7 102 l0 84 13 -49 c7 -27 22
-78 32 -114 11 -36 26 -102 34 -148 15 -78 14 -92 -6 -245 -30 -224 -30 -401
0 -532 13 -55 26 -107 29 -115 4 -8 5 -19 4 -24 -1 -5 21 -81 49 -170 80 -249
94 -286 102 -273 5 7 7 2 7 -13 0 -14 7 -52 16 -85 18 -62 18 -183 -1 -562 -5
-93 -4 -133 4 -133 18 0 23 90 25 410 2 357 6 339 -132 738 -122 352 -127 400
-86 716 9 65 16 148 16 184 0 70 -32 243 -76 407 -25 93 -25 100 -23 427 l2
333 6 -345 5 -345 36 -135 c33 -121 43 -170 64 -302 3 -20 -3 -110 -14 -200
-31 -253 -34 -306 -21 -391 10 -67 73 -271 135 -437 9 -25 32 -97 50 -160 l34
-115 1 149 c0 82 3 146 6 143 8 -8 7 -258 -1 -300 -3 -18 -3 -27 2 -21 4 7 9
-29 11 -80 4 -113 -9 -706 -15 -689 -3 9 -10 10 -23 3 -16 -8 -19 -6 -23 18
-4 25 -4 25 -6 -5 -1 -31 1 -33 34 -33 19 0 35 -4 35 -10 0 -7 977 -10 2910
-10 l2910 0 0 379 c0 294 3 397 15 457 33 174 85 754 85 955 0 115 -12 215
-65 531 -19 113 -35 211 -35 217 0 8 236 12 798 13 l797 3 3 109 c3 102 4 108
22 103 25 -6 25 -4 0 75 -15 48 -20 94 -21 198 -2 155 -14 364 -18 305 -2 -22
-5 -32 -8 -22 -2 9 -23 27 -46 39 -23 11 -46 26 -50 32 -4 6 -5 -7 -2 -29 7
-48 -112 336 -161 523 -35 132 -35 133 -35 345 1 230 15 489 30 558 5 24 17
100 25 169 23 175 23 175 -147 505 -135 263 -235 415 -466 715 -121 156 -142
174 -293 250 -103 53 -527 201 -625 219 -109 21 -200 73 -391 224 -137 109
-168 123 -780 348 -240 88 -524 193 -631 232 l-193 72 4 75 c5 87 26 140 87
220 23 30 49 72 58 93 19 43 57 58 112 46 25 -6 51 -1 101 17 37 13 89 24 114
24 60 0 170 37 289 96 50 26 110 52 131 58 40 11 40 12 54 86 18 87 8 189 -32
354 -17 70 -21 107 -16 130 5 17 10 45 12 61 3 34 2 33 63 103 60 70 77 112
73 187 -3 51 -6 60 -23 63 -30 6 -45 21 -38 39 6 14 8 14 14 -3 4 -10 5 6 2
36 -3 30 -12 65 -20 78 -27 43 -33 112 -17 192 17 82 41 143 54 135 5 -3 24 4
42 15 34 20 32 28 -3 10 -12 -7 -19 -7 -19 -1 0 6 19 15 43 21 182 45 191 55
192 225 0 112 -2 126 -20 140 -11 9 -14 13 -7 10 11 -6 12 -3 3 14 -7 11 -16
21 -21 21 -6 0 -9 3 -8 8 2 4 -42 68 -98 142 -55 74 -147 197 -203 274 l-103
139 5 61 c3 33 7 97 9 141 3 44 10 90 16 102 22 39 15 105 -15 148 -16 23 -77
183 -145 378 l-117 339 22 30 c19 26 22 42 22 136 0 99 -2 112 -31 172 -42 86
-99 157 -188 228 -191 154 -367 206 -746 222 -107 5 -271 18 -365 29 -236 29
-225 28 -465 21z m475 -45 c66 -8 224 -19 350 -24 254 -10 364 -26 486 -71
238 -86 435 -281 467 -460 11 -64 0 -173 -19 -197 -12 -14 -15 3 -19 118 -5
119 -8 139 -30 178 -14 24 -29 43 -33 42 -11 -3 -123 100 -120 111 3 8 -63 53
-94 65 -12 5 -14 3 -8 -7 5 -9 4 -11 -4 -6 -6 4 -9 11 -6 16 6 10 -187 110
-285 148 -71 28 -246 52 -379 52 -58 0 -185 9 -281 21 -96 12 -287 25 -425 29
l-250 8 265 -3 c164 -3 311 -10 385 -20z m-672 8 c-7 -2 -19 -2 -25 0 -7 3 -2
5 12 5 14 0 19 -2 13 -5z m-108 -17 c-57 -15 -465 -175 -538 -213 -27 -13 -46
-20 -43 -14 8 12 151 99 221 133 96 48 302 106 375 106 32 0 31 -1 -15 -12z
m1183 -43 c-10 -2 -26 -2 -35 0 -10 3 -2 5 17 5 19 0 27 -2 18 -5z m85 -10
c-7 -2 -21 -2 -30 0 -10 3 -4 5 12 5 17 0 24 -2 18 -5z m60 -10 c-7 -2 -21 -2
-30 0 -10 3 -4 5 12 5 17 0 24 -2 18 -5z m97 -13 c11 -7 5 -8 -20 -4 -43 8
-51 14 -19 14 13 0 31 -5 39 -10z m50 -20 c8 -5 11 -10 5 -10 -5 0 -17 5 -25
10 -8 5 -10 10 -5 10 6 0 17 -5 25 -10z m50 -20 c8 -5 11 -10 5 -10 -5 0 -17
5 -25 10 -8 5 -10 10 -5 10 6 0 17 -5 25 -10z m140 -65 c39 -19 70 -38 70 -40
0 -5 -139 62 -149 71 -13 12 18 0 79 -31z m150 -91 c0 -2 -9 0 -20 6 -11 6
-20 13 -20 16 0 2 9 0 20 -6 11 -6 20 -13 20 -16z m200 -199 c6 -19 10 -39 8
-44 -2 -5 -10 12 -19 39 -8 27 -12 47 -8 44 4 -2 13 -20 19 -39z m17 -212 c-2
-27 -3 -5 -3 47 0 52 1 74 3 48 2 -27 2 -69 0 -95z m-6 -75 c-5 -16 -50 -45
-154 -98 -81 -41 -148 -81 -151 -88 -2 -7 -3 -5 -2 4 0 10 53 43 141 88 93 47
143 79 150 94 13 29 27 29 16 0z m117 -331 c49 -144 98 -288 107 -320 10 -32
31 -74 47 -94 33 -41 34 -64 11 -141 -13 -41 -17 -93 -18 -187 l0 -130 83
-115 c172 -238 255 -358 305 -440 l52 -85 3 -112 c2 -65 -1 -119 -7 -131 -9
-18 -47 -31 -126 -47 -34 -6 -38 -10 63 68 34 27 62 51 62 53 0 3 -26 38 -58
77 -32 40 -75 97 -97 127 -21 30 -64 88 -94 128 -33 45 -69 111 -92 169 -71
177 -146 262 -268 303 -39 13 -68 26 -66 29 13 12 145 -46 191 -85 28 -24 55
-40 59 -36 5 4 5 2 2 -4 -4 -7 9 -38 28 -70 19 -32 49 -94 66 -138 19 -51 56
-115 97 -171 36 -49 84 -115 106 -145 22 -30 60 -80 84 -110 l45 -55 -5 75
c-4 69 -9 81 -57 159 -29 47 -85 130 -125 186 -41 56 -79 111 -85 124 -7 12
-16 19 -20 17 -4 -3 -30 18 -57 47 l-49 52 48 -45 c74 -70 55 -35 -28 51 l-75
77 0 139 c0 94 5 156 15 193 20 72 30 139 17 122 -7 -11 -10 -11 -15 3 -4 9
-3 13 3 10 18 -11 10 15 -10 32 -11 10 -32 54 -46 98 -28 86 -120 259 -134
250 -5 -3 -12 0 -16 6 -5 8 -3 9 6 4 8 -5 11 -3 8 6 -3 8 -10 14 -15 14 -6 0
-15 4 -20 9 -5 6 -2 6 6 1 11 -6 13 -4 6 11 -17 41 -35 142 -35 204 0 95 -5
98 -79 55 -63 -37 -206 -105 -219 -105 -4 1 53 31 126 69 73 37 138 73 145 80
9 9 14 8 23 -4 6 -8 52 -133 102 -278z m-111 121 c-2 -24 -4 -5 -4 42 0 47 2
66 4 43 2 -24 2 -62 0 -85z m22 -102 c6 -22 6 -35 1 -30 -4 5 -11 27 -14 49
-7 45 -2 38 13 -19z m71 -126 c6 -11 8 -20 6 -20 -3 0 -10 9 -16 20 -6 11 -8
20 -6 20 3 0 10 -9 16 -20z m50 -90 c17 -33 28 -60 25 -60 -2 0 -18 27 -35 60
-17 33 -28 60 -25 60 2 0 18 -27 35 -60z m-3804 -506 c-70 -277 -86 -419 -62
-549 47 -258 102 -428 199 -617 87 -170 134 -288 149 -377 9 -57 8 -79 -11
-163 -31 -142 -28 -213 10 -288 17 -33 34 -58 39 -55 5 3 12 0 16 -6 4 -8 3
-9 -4 -5 -17 11 -15 -9 3 -24 8 -7 15 -9 15 -4 0 4 16 -7 35 -26 19 -18 33
-36 30 -39 -6 -6 25 -41 37 -41 5 0 6 5 2 12 -4 7 -3 8 5 4 6 -4 9 -11 6 -16
-13 -21 59 -23 140 -4 17 4 18 4 3 -6 -9 -5 -43 -13 -76 -16 -104 -11 -162 35
-248 196 -42 76 -46 92 -46 150 0 36 10 112 22 170 32 158 20 207 -136 530
-104 216 -138 316 -185 543 -34 166 -35 248 -4 408 19 104 77 331 82 326 2 -3
-7 -49 -21 -103z m3891 -186 c-2 -13 -4 -3 -4 22 0 25 2 35 4 23 2 -13 2 -33
0 -45z m-230 46 c-3 -3 -12 -4 -19 -1 -8 3 -5 6 6 6 11 1 17 -2 13 -5z m-34
-31 c-7 -2 -19 -2 -25 0 -7 3 -2 5 12 5 14 0 19 -2 13 -5z m50 -10 c-7 -2 -19
-2 -25 0 -7 3 -2 5 12 5 14 0 19 -2 13 -5z m231 -49 c3 -8 2 -12 -4 -9 -6 3
-10 10 -10 16 0 14 7 11 14 -7z m46 -180 c54 -109 50 -119 -6 -14 -25 47 -55
101 -66 120 l-20 35 26 -30 c14 -16 44 -66 66 -111z m-4013 -36 c-2 -13 -4 -5
-4 17 -1 22 1 32 4 23 2 -10 2 -28 0 -40z m42 -458 c0 -22 -28 55 -33 90 -5
39 -3 37 14 -20 10 -36 19 -67 19 -70z m3619 -77 c-16 -2 -40 -2 -55 0 -16 2
-3 4 27 4 30 0 43 -2 28 -4z m271 -34 c55 -8 71 -16 105 -50 23 -22 59 -52 82
-66 l40 -26 -24 -81 c-33 -112 -35 -219 -4 -263 12 -17 22 -35 22 -40 0 -4 -4
-3 -8 3 -8 13 -206 124 -218 123 -5 0 -38 -36 -74 -79 -36 -43 -69 -77 -75
-76 -5 1 -24 40 -42 86 l-31 84 -104 38 c-94 34 -128 53 -47 27 105 -34 169
-62 169 -75 0 -22 52 -145 60 -142 4 2 36 36 71 76 73 85 70 85 183 18 l74
-44 -10 37 c-13 45 -4 135 22 230 12 41 19 74 18 75 -19 11 -91 66 -118 91
-19 18 -48 36 -65 40 -16 4 -124 8 -240 8 -200 1 -203 1 -70 7 77 3 158 7 180
8 22 1 69 -3 104 -9z m191 -80 l35 -31 -47 33 c-27 18 -56 41 -65 53 -17 18
-16 18 12 -2 17 -12 46 -36 65 -53z m-430 -352 c6 -17 7 -27 3 -22 -5 6 -19
22 -32 37 -22 25 -22 26 -3 21 12 -3 26 -19 32 -36z m-31 -88 c9 -26 8 -29 -2
-20 -8 6 -47 27 -88 46 -41 20 -63 33 -49 29 14 -4 45 -16 70 -28 25 -11 50
-22 55 -24 6 -3 -10 17 -35 44 l-45 48 42 -32 c22 -18 46 -46 52 -63z m-209
41 c8 -5 11 -10 5 -10 -5 0 -17 5 -25 10 -8 5 -10 10 -5 10 6 0 17 -5 25 -10z
m145 -59 c54 -29 69 -42 67 -57 -4 -24 -53 -123 -64 -130 -5 -3 6 24 23 59 18
36 29 72 26 80 -3 9 -43 34 -89 57 -46 23 -72 38 -58 35 14 -4 57 -24 95 -44z
m309 -253 c-9 -48 -41 -118 -54 -118 -6 0 -9 8 -7 18 3 9 11 40 18 69 7 31 19
54 28 56 9 3 17 5 18 6 1 0 0 -14 -3 -31z m-334 -1 c0 -2 -11 -18 -25 -37 -14
-19 -26 -43 -26 -54 -1 -18 -2 -19 -6 -3 -3 10 8 36 22 58 25 35 35 45 35 36z
m258 -59 c-17 -79 5 -114 46 -72 11 10 23 13 38 8 27 -9 58 -6 76 8 9 8 12 6
12 -5 0 -25 36 -30 66 -10 l27 17 -27 -40 c-48 -73 -48 -87 -4 -235 29 -101
40 -159 45 -234 5 -94 4 -102 -19 -135 -27 -41 -144 -113 -268 -167 -74 -32
-96 -37 -165 -37 -76 -1 -86 2 -213 58 -95 41 -137 55 -145 47 -7 -7 -3 -13
14 -19 13 -6 73 -30 132 -56 59 -25 113 -46 120 -46 7 -1 -2 -7 -20 -15 -17
-7 -42 -11 -55 -8 -15 3 -19 2 -11 -4 8 -6 -3 -9 -30 -10 l-42 -1 43 16 c23 9
42 22 42 29 0 17 -3 17 -94 -20 -67 -27 -81 -37 -87 -60 -4 -15 -28 -56 -54
-92 -72 -101 -96 -163 -102 -258 -6 -97 -44 -203 -99 -278 -20 -27 -38 -49
-41 -49 -2 0 12 23 32 50 21 28 46 76 57 106 19 54 19 56 2 69 -11 7 -22 11
-25 9 -8 -5 18 87 27 95 4 3 4 -3 1 -14 -13 -46 -19 -75 -14 -75 5 0 10 15 86
275 43 145 67 185 112 185 10 0 19 4 19 9 0 5 34 21 75 36 41 15 75 29 75 30
0 1 -36 18 -80 36 -92 38 -107 50 -85 69 13 10 39 3 153 -45 75 -32 157 -60
181 -63 47 -5 201 36 180 48 -7 5 -5 9 6 13 9 4 13 3 10 -3 -10 -16 1 -12 95
35 87 44 152 91 170 125 15 28 -15 264 -49 379 -31 106 -31 136 -5 175 12 18
10 21 -21 32 -19 6 -45 9 -58 7 -14 -3 -34 0 -45 6 -15 8 -23 7 -32 -4 -7 -8
-23 -15 -36 -15 -32 0 -46 36 -33 85 16 58 5 63 -29 13 -17 -25 -54 -66 -82
-91 -71 -64 -180 -98 -180 -55 0 10 2 10 9 0 6 -11 17 -11 47 -3 64 17 131 66
180 133 26 35 53 62 60 62 8 -1 14 3 14 9 0 6 2 8 5 5 3 -2 0 -29 -7 -60z
m-79 15 c-38 -51 -89 -97 -131 -119 -26 -13 -51 -24 -56 -24 -15 0 -23 76 -12
102 10 22 10 22 5 -4 -3 -14 -2 -40 1 -57 l6 -30 36 15 c45 19 99 59 112 85
11 19 10 19 -27 3 -65 -28 -94 -37 -100 -31 -3 3 7 9 23 13 16 4 56 20 89 35
72 34 71 33 54 12z m-232 -130 c-3 -10 -5 -2 -5 17 0 19 2 27 5 18 2 -10 2
-26 0 -35z m544 -74 c-6 -24 -9 -28 -10 -12 -1 24 9 56 16 50 2 -3 0 -20 -6
-38z m-4 -241 c-3 -7 -5 -2 -5 12 0 14 2 19 5 13 2 -7 2 -19 0 -25z m10 -80
c-2 -13 -4 -3 -4 22 0 25 2 35 4 23 2 -13 2 -33 0 -45z m10 -105 c-2 -16 -4
-5 -4 22 0 28 2 40 4 28 2 -13 2 -35 0 -50z m23 -128 c0 -2 -10 -10 -22 -16
-21 -11 -22 -11 -9 4 13 16 31 23 31 12z m-3003 -97 c-2 -13 -4 -3 -4 22 0 25
2 35 4 23 2 -13 2 -33 0 -45z m2673 -18 c-8 -5 -19 -10 -25 -10 -5 0 -3 5 5
10 8 5 20 10 25 10 6 0 3 -5 -5 -10z m-60 -20 c-8 -5 -19 -10 -25 -10 -5 0 -3
5 5 10 8 5 20 10 25 10 6 0 3 -5 -5 -10z m-2623 -112 c-2 -13 -4 -3 -4 22 0
25 2 35 4 23 2 -13 2 -33 0 -45z m2203 35 c-8 -3 -27 -12 -42 -20 -16 -7 -28
-11 -28 -9 0 9 54 35 70 35 13 -1 13 -1 0 -6z m-98 -113 c-9 -32 -18 -57 -20
-55 -4 4 16 91 25 108 11 20 9 1 -5 -53z m-2115 -10 c-2 -33 -7 -63 -12 -67
-4 -5 -5 -2 0 6 5 9 3 12 -6 9 -8 -3 -14 -10 -14 -15 0 -6 -4 -15 -9 -20 -5
-5 -6 -2 -1 6 5 9 3 12 -6 9 -8 -3 -14 -10 -14 -16 0 -6 -7 -17 -15 -24 -12
-11 -12 -11 -1 5 32 41 -4 17 -174 -116 -121 -95 -45 -23 116 109 105 86 117
100 123 135 9 59 18 47 13 -21z m2076 -123 c-9 -32 -18 -56 -20 -53 -2 2 3 29
12 61 9 31 19 55 21 53 2 -3 -4 -30 -13 -61z m-605 8 c-6 -14 -13 -23 -15 -21
-5 5 15 46 22 46 3 0 -1 -11 -7 -25z m15 -119 c-7 -11 -25 -20 -40 -22 l-28
-2 33 16 c28 14 32 21 33 56 l2 41 6 -35 c4 -22 2 -42 -6 -54z m76 52 c-7 -13
-21 -36 -33 -53 -11 -16 -35 -57 -53 -90 -18 -33 -33 -56 -33 -52 0 13 28 66
78 145 44 70 65 95 41 50z m485 -42 c-3 -15 -8 -25 -11 -23 -2 3 -1 17 3 31 3
15 8 25 11 23 2 -3 1 -17 -3 -31z m-634 -6 c-20 -13 -33 -13 -25 0 3 6 14 10
23 10 15 0 15 -2 2 -10z m33 -75 c-9 -19 -18 -33 -21 -31 -4 5 26 66 33 66 3
0 -3 -16 -12 -35z m-1803 2 c0 -2 -10 -12 -22 -23 l-23 -19 19 23 c18 21 26
27 26 19z m1700 -62 c0 -5 -5 -3 -10 5 -5 8 -10 20 -10 25 0 6 5 3 10 -5 5 -8
10 -19 10 -25z m-1750 21 c0 -2 -8 -10 -17 -17 -16 -13 -17 -12 -4 4 13 16 21
21 21 13z m3105 -226 c806 -304 856 -325 960 -404 44 -33 109 -82 145 -108 76
-58 186 -113 255 -129 28 -6 155 -45 284 -86 338 -108 496 -193 589 -317 29
-39 36 -51 15 -26 -95 113 -185 175 -350 241 -93 37 -313 100 -452 129 -56 12
-124 30 -149 41 -67 29 -196 117 -272 186 -100 91 -143 117 -300 182 -243 100
-784 302 -797 296 -19 -7 -48 6 -33 15 10 6 -214 79 -432 141 -58 16 -78 26
-78 39 0 9 2 19 5 22 5 5 152 -49 610 -222z m-2038 158 c-3 -8 -6 -5 -6 6 -1
11 2 17 5 13 3 -3 4 -12 1 -19z m774 -1 c-10 -9 -11 -8 -5 6 3 10 9 15 12 12
3 -3 0 -11 -7 -18z m662 7 c-6 -3 -19 -26 -28 -52 -8 -26 -31 -65 -51 -87
l-36 -40 31 44 c17 24 38 66 47 93 10 33 21 48 32 47 10 0 12 -3 5 -5z m62
-14 c13 -5 14 -9 5 -9 -8 0 -24 4 -35 9 -13 5 -14 9 -5 9 8 0 24 -4 35 -9z
m-2675 -4 c0 -2 -8 -10 -17 -17 -16 -13 -17 -12 -4 4 13 16 21 21 21 13z
m2745 -16 c13 -5 14 -9 5 -9 -8 0 -24 4 -35 9 -13 5 -14 9 -5 9 8 0 24 -4 35
-9z m-2815 -34 c0 -2 -8 -10 -17 -17 -16 -13 -17 -12 -4 4 13 16 21 21 21 13z
m2945 -6 c13 -6 15 -9 5 -9 -8 0 -22 4 -30 9 -18 12 -2 12 25 0z m65 -20 c18
-12 2 -12 -25 0 -13 6 -15 9 -5 9 8 0 22 -4 30 -9z m65 -20 c13 -6 15 -9 5 -9
-8 0 -22 4 -30 9 -18 12 -2 12 25 0z m-3145 -5 c0 -2 -20 -18 -45 -35 -25 -17
-45 -29 -45 -26 0 4 80 64 88 66 1 0 2 -2 2 -5z m-100 -70 c0 -2 -28 -23 -62
-46 -35 -23 -58 -36 -52 -30 10 11 105 79 112 80 1 1 2 -1 2 -4z m-160 -110
c0 -2 -20 -18 -45 -35 -25 -17 -45 -29 -45 -26 0 4 80 64 88 66 1 0 2 -2 2 -5z
m-1770 -916 c-41 -23 -101 -58 -132 -79 -56 -37 -72 -33 -20 5 33 25 203 114
217 115 6 0 -24 -19 -65 -41z m7725 -129 c25 -33 44 -60 41 -60 -3 0 -26 27
-51 60 -25 33 -44 60 -41 60 3 0 26 -27 51 -60z m95 -126 c18 -26 29 -45 24
-42 -5 4 -25 28 -44 54 -18 26 -29 45 -24 42 5 -4 25 -28 44 -54z m-8130 2 c0
-2 -8 -10 -17 -17 -16 -13 -17 -12 -4 4 13 16 21 21 21 13z m-50 -59 c0 -2
-15 -16 -32 -33 l-33 -29 29 33 c28 30 36 37 36 29z m8278 -84 c158 -237 276
-472 298 -593 8 -41 16 -142 18 -225 l5 -150 -8 130 c-12 188 -28 279 -68 375
-57 138 -154 314 -265 478 -27 39 -46 72 -44 72 3 0 32 -39 64 -87z m-8443
-114 c-58 -71 -104 -133 -101 -137 2 -4 -7 -27 -21 -52 -22 -41 -24 -39 -7 8
5 11 4 14 -3 7 -47 -47 -146 -489 -199 -885 -18 -133 -15 -314 7 -535 13 -130
6 -150 -9 -28 -28 219 -35 366 -22 468 45 364 149 880 194 961 22 40 252 324
262 324 3 0 -42 -59 -101 -131z m3912 -301 c-3 -8 -6 -5 -6 6 -1 11 2 17 5 13
3 -3 4 -12 1 -19z m100 -55 c-3 -10 -5 -2 -5 17 0 19 2 27 5 18 2 -10 2 -26 0
-35z m-90 -25 c-3 -7 -5 -2 -5 12 0 14 2 19 5 13 2 -7 2 -19 0 -25z m140 -40
c1 -39 0 -40 -7 -13 -11 41 -12 67 -2 61 4 -2 9 -24 9 -48z m-75 -113 l33 -81
-3 106 c-2 58 -2 103 1 100 2 -3 7 -66 10 -140 4 -78 3 -125 -2 -110 -5 14
-29 75 -55 137 -25 61 -46 115 -45 120 1 9 16 -23 61 -132z m585 93 c-3 -7 -5
-2 -5 12 0 14 2 19 5 13 2 -7 2 -19 0 -25z m4222 -162 c6 -70 10 -164 9 -209
-1 -69 -2 -72 -5 -22 -4 91 -22 315 -28 360 -4 30 -3 35 4 19 5 -12 14 -78 20
-148z m-4274 -66 c-14 -27 -28 -50 -30 -50 -3 0 6 22 20 50 30 60 34 112 8
104 -17 -5 -17 -5 0 6 11 7 18 26 19 58 1 26 4 10 5 -35 3 -72 1 -88 -22 -133z
m72 133 c-10 -22 -13 -24 -15 -9 -2 10 2 22 10 27 19 12 19 12 5 -18z m4231
-68 c0 -16 -2 -15 -8 5 -11 34 -11 60 0 35 5 -11 8 -29 8 -40z m-1 -122 c-3
-10 -5 -4 -5 12 0 17 2 24 5 18 2 -7 2 -21 0 -30z m-6866 -435 c-99 -454 -208
-1125 -265 -1638 -35 -319 -39 -378 -40 -625 l-1 -260 33 -110 c98 -324 203
-558 301 -671 14 -16 7 -10 -17 14 -80 83 -162 251 -247 505 -78 234 -85 275
-85 495 0 337 49 799 156 1467 66 415 187 1025 201 1011 3 -2 -14 -87 -36
-188z m2365 87 c38 0 58 5 74 20 l23 20 -8 -25 c-14 -42 -8 -212 9 -280 36
-145 108 -247 429 -618 252 -290 347 -431 372 -548 34 -158 47 -266 47 -384 1
-128 -7 -170 -51 -293 -12 -32 -29 -103 -38 -157 -15 -84 -15 -111 -5 -180 16
-112 41 -154 127 -212 120 -81 286 -130 555 -163 69 -8 148 -19 175 -24 28 -5
110 -19 182 -32 73 -12 131 -24 129 -27 -3 -2 -51 3 -108 11 -57 9 -143 21
-193 27 -215 26 -444 62 -510 80 -16 5 -43 11 -58 14 -15 4 -25 11 -22 15 3 5
-5 7 -17 3 -14 -3 -19 -2 -14 6 4 7 4 12 -1 13 -30 3 -51 13 -120 61 -133 92
-239 125 -350 108 -170 -27 -215 -31 -318 -31 -60 0 -132 5 -160 11 -27 5
-107 13 -178 16 -182 10 -258 -10 -377 -100 -30 -23 -90 -57 -133 -75 -79 -32
-339 -121 -354 -121 -16 1 212 92 234 94 12 0 19 3 17 5 -3 3 48 31 113 64
131 66 236 136 255 170 43 81 205 686 252 947 33 180 56 396 56 523 0 220
-109 968 -149 1022 -4 6 -15 28 -24 51 l-15 40 51 -25 c35 -18 68 -26 103 -26z
m-4649 -157 c-2 -18 -4 -6 -4 27 0 33 2 48 4 33 2 -15 2 -42 0 -60z m9117
-603 c15 -55 43 -156 62 -224 19 -68 33 -125 31 -127 -2 -2 -20 45 -41 104
-21 59 -54 152 -74 207 -44 124 -52 242 -31 480 l14 160 5 -250 c6 -233 8
-257 34 -350z m-1964 420 c0 -5 -5 -3 -10 5 -5 8 -10 20 -10 25 0 6 5 3 10 -5
5 -8 10 -19 10 -25z m101 -276 c216 -654 262 -1263 183 -2427 -5 -72 -11 -105
-21 -109 -7 -3 -11 -8 -8 -12 2 -4 -2 -8 -10 -8 -8 0 -11 5 -8 10 3 6 -7 21
-23 35 l-29 24 38 -22 c21 -12 39 -21 41 -19 2 2 11 139 22 304 33 534 22
1151 -26 1495 -5 36 -13 99 -19 141 -15 115 -94 412 -165 624 -81 238 -81 239
-55 185 12 -25 47 -124 80 -221z m-7234 -81 c-3 -8 -6 -5 -6 6 -1 11 2 17 5
13 3 -3 4 -12 1 -19z m20 -190 c-3 -8 -6 -5 -6 6 -1 11 2 17 5 13 3 -3 4 -12
1 -19z m-42 -335 c-33 -107 -63 -190 -64 -177 -1 15 58 213 70 236 19 35 17
17 -6 -59z m1682 -80 c-3 -10 -5 -4 -5 12 0 17 2 24 5 18 2 -7 2 -21 0 -30z
m7750 -545 c-2 -13 -4 -5 -4 17 -1 22 1 32 4 23 2 -10 2 -28 0 -40z m-1659
-248 l28 0 49 -292 c57 -335 65 -469 45 -748 -19 -264 -65 -661 -69 -595 0 11
3 58 9 105 5 47 14 200 20 340 6 140 15 340 20 444 6 114 6 203 1 225 -5 20
-26 143 -47 273 -37 236 -38 237 -63 240 l-26 3 0 118 -1 117 3 -115 4 -115
27 0z m-5969 -310 c0 -10 -3 -8 -9 5 -12 27 -12 43 0 25 5 -8 9 -22 9 -30z m8
-87 c-3 -10 -5 -2 -5 17 0 19 2 27 5 18 2 -10 2 -26 0 -35z m6060 -175 c-3 -8
-6 -5 -6 6 -1 11 2 17 5 13 3 -3 4 -12 1 -19z m-10 -161 c-2 -23 -3 -1 -3 48
0 50 1 68 3 42 2 -26 2 -67 0 -90z m-4127 -47 c-8 -5 -22 -9 -30 -9 -10 0 -8
3 5 9 27 12 43 12 25 0z m3109 -51 c218 -36 287 -56 394 -115 53 -31 97 -57
97 -59 0 -2 -33 11 -72 29 -40 19 -90 40 -110 47 -27 9 -34 16 -25 22 8 6 4 7
-10 4 -12 -3 -55 5 -95 17 -66 21 -141 37 -293 65 -27 5 -42 9 -31 10 10 0 75
-8 145 -20z m-3360 -23 c-2 -2 -94 -34 -204 -71 -221 -74 -354 -137 -570 -270
-77 -48 -144 -87 -150 -88 -5 -1 -15 -8 -21 -16 -9 -12 -12 -12 -19 0 -5 8 -5
11 0 7 4 -4 13 -1 19 6 15 20 375 224 512 291 165 80 256 114 336 125 40 6 74
13 77 15 2 3 9 5 14 5 6 0 8 -2 6 -4z m4368 -113 c-2 -21 -4 -4 -4 37 0 41 2
58 4 38 2 -21 2 -55 0 -75z m-10 -185 c-2 -29 -3 -8 -3 47 0 55 1 79 3 53 2
-26 2 -71 0 -100z m-398 24 c7 -14 6 -19 -4 -19 -7 0 -11 7 -7 15 4 11 1 13
-8 7 -9 -5 -11 -4 -6 3 10 16 14 15 25 -6z m12 -55 c-10 -9 -11 -8 -5 6 3 10
9 15 12 12 3 -3 0 -11 -7 -18z m-21 -52 c0 -5 -5 -3 -10 5 -5 8 -10 20 -10 25
0 6 5 3 10 -5 5 -8 10 -19 10 -25z m48 -20 c-3 -3 -9 2 -12 12 -6 14 -5 15 5
6 7 -7 10 -15 7 -18z m-4974 -53 c3 -5 -1 -9 -9 -9 -8 0 -12 4 -9 9 3 4 7 8 9
8 2 0 6 -4 9 -8z m5323 -104 c-2 -24 -4 -7 -4 37 0 44 2 63 4 43 2 -21 2 -57
0 -80z m-5830 45 c-3 -10 -5 -2 -5 17 0 19 2 27 5 18 2 -10 2 -26 0 -35z
m-112 -165 c25 -77 45 -145 44 -151 -1 -13 -118 332 -118 348 0 20 30 -59 74
-197z"/>
<path d="M6302 12241 c29 -27 55 -47 58 -44 6 6 -91 92 -103 93 -5 0 16 -22
45 -49z"/>
<path d="M7051 9753 c-47 -39 -51 -43 -25 -37 58 14 74 24 80 49 3 14 5 27 3
29 -2 2 -28 -16 -58 -41z"/>
<path d="M3121 8681 c7 -10 21 -24 33 -31 15 -9 12 -3 -8 19 -34 35 -41 39
-25 12z"/>
<path d="M6571 8954 c-15 -61 -8 -68 9 -9 7 25 10 48 8 51 -3 2 -11 -16 -17
-42z"/>
<path d="M6200 8005 c0 -16 16 -20 24 -6 3 5 -1 11 -9 15 -9 3 -15 0 -15 -9z"/>
<path d="M445 5569 c-4 -6 -5 -12 -2 -15 2 -3 7 2 10 11 7 17 1 20 -8 4z"/>
<path d="M4760 4660 c0 -6 9 -29 20 -51 35 -67 71 -275 126 -709 41 -336 31
-533 -52 -950 -33 -167 -101 -432 -166 -648 -50 -168 -55 -179 -99 -223 l-45
-46 55 25 c69 32 219 41 356 22 172 -24 331 -24 475 0 84 13 147 19 178 15 50
-7 129 -32 150 -48 16 -12 16 -12 -9 58 -44 124 -35 268 29 455 33 97 36 116
40 245 4 141 -1 187 -40 380 -16 82 -28 114 -66 174 -67 109 -142 205 -305
393 -255 293 -354 420 -392 504 -45 101 -58 164 -59 280 l-1 111 -28 -10 c-33
-11 -97 -3 -138 19 -18 9 -29 10 -29 4z"/>
<path d="M4385 1944 c-44 -24 -77 -43 -73 -44 15 0 136 61 148 75 16 19 20 21
-75 -31z"/>
<path d="M4270 1890 c-8 -5 -10 -10 -5 -10 6 0 17 5 25 10 8 5 11 10 5 10 -5
0 -17 -5 -25 -10z"/>
<path d="M7380 1636 c0 -2 7 -7 16 -10 8 -3 12 -2 9 4 -6 10 -25 14 -25 6z"/>
<path d="M6723 10902 c4 -19 2 -32 -3 -32 -6 0 -10 -19 -10 -42 1 -34 3 -39
11 -26 17 30 23 114 9 123 -10 6 -12 1 -7 -23z"/>
</g>
</svg>
