<?xml version="1.0" encoding="UTF-8"?>
<svg width="752pt" height="752pt" version="1.1" fill="rgb(49,163,214)" viewBox="0 0 752 752" xmlns="http://www.w3.org/2000/svg">
 <defs>
  <clipPath id="a">
   <path d="m139.21 168h473.58v416h-473.58z"/>
  </clipPath>
 </defs>
 <g clip-path="url(#a)">
  <path d="m262.54 168.81c-3.5312 0-6.7969 1.8906-8.5547 4.9531l-113.46 197.79c-1.7461 3.043-1.7461 6.7852 0 9.8281l113.46 196.88c1.7656 3.0547 5.0273 4.9336 8.5547 4.9297h226.93c3.5273 0.003906 6.7891-1.875 8.5547-4.9297l113.46-196.88c1.75-3.043 1.75-6.7852 0-9.8281l-113.46-197.79c-1.7617-3.0625-5.0234-4.9531-8.5547-4.9531zm5.7227 19.734h215.48l107.79 187.9-107.78 187.02h-215.52l-107.78-187.02z" fill-rule="evenodd"/>
 </g>
</svg>
